<svg xmlns="http://www.w3.org/2000/svg" height="800" width="1200" viewBox="-44.7 -14.09855 387.4 84.5913"><path class="st0" d="M253.3 41.405c-2.4833-.6208-3.1042-1.8625-3.4146-4.3458-.6208-4.0354-.6208-13.9687 0-18.3146.3104-2.1729 1.5521-3.4146 3.4146-4.0354 2.173-.6208 22.0396-.9312 24.2125 0 1.8625.6208 2.4833 1.8625 2.7937 3.725.9313 4.0354.9313 14.2792 0 18.3146-.3104 1.8625-.9312 2.7937-2.7937 3.725-1.8625 1.552-21.4188 1.552-24.2125.9312zm30.7312-40.354c-5.8979-1.2417-28.5583-1.5521-37.5604 0-6.8291 1.2416-12.1062 6.2083-13.6583 12.4166-1.2417 7.1396-1.2417 22.9709 0 29.4896 1.2417 5.898 6.2083 11.175 13.6583 12.4167 7.7604 1.552 30.7313 1.2417 37.8709-.3104 8.3812-1.8625 11.7958-8.0708 12.727-12.1063 1.2417-6.2083 1.2417-22.0396 0-29.4896-1.552-6.5187-7.1395-11.175-13.0375-12.4166zm-77.9145.3104h17.0729v53.702h-17.073zM178.8 34.5759c2.7937.6208 3.4146 2.7937 3.4146 4.6562 0 1.8625-.3104 4.0354-3.4146 4.3459-3.4146.6208-14.9.6208-19.2458 0-1.8625-.3105-4.0354-.3105-4.6563-3.725v-.9313h-17.073c0 .3104 0 1.2417.3105 2.4833.6209 7.1396 3.4146 12.1063 11.4854 13.6584 6.5188 1.2416 31.0417 1.552 38.4917 0 8.6917-1.8625 10.8646-9.623 10.8646-16.4521 0-7.7604-2.7938-13.0375-9.623-15.2104-1.8624-.6209-6.2083-.9313-8.0708-.9313-1.552 0-19.8666-.6208-23.902-1.2416-2.4834-.3105-3.1042-1.8625-3.1042-4.0355 0-2.1729.3104-3.725 3.4146-4.3458 3.725-.6208 18.3146-.6208 19.8666 0 1.8625.6208 2.4834 1.8625 2.4834 3.4146v1.2417h17.0729c0-1.2417-.3104-2.173-.3104-3.1042-.9313-8.3813-5.5875-13.0375-13.9688-13.6583-8.3812-.9313-27.627-.6209-33.525.3104-5.5875 1.2416-11.175 4.6562-11.175 16.1416 0 9.3125 4.3459 13.9688 11.7959 15.5209 2.1729.3104 8.3812.6208 9.3124.6208 2.173.3104 18.3146.9313 19.5563 1.2417zm-67.3604-.3104H92.5042l8.0708-21.4188h2.7938zm3.725 11.175l3.725 9.6229h18.3146L114.2333 1.0509H89.4L66.7396 55.0634h18.3146l3.725-9.9334 26.3854.3105zm-97.4708-8.0709c.3104 3.1042 1.8624 3.725 3.4145 4.0354 2.4834.6209 20.1771.6209 23.2813 0 2.1729-.3104 3.725-1.8625 4.0354-3.725 0-.9312.3104-2.4833.3104-3.1041h17.6938c0 1.2416 0 4.3458-.3104 7.1396-.9313 6.5187-4.6563 11.7958-12.7271 13.6583-5.5875 1.2417-32.5938 1.2417-38.8021 0C8.0708 53.8218 2.4833 49.7863.9313 42.957c-1.2417-6.2083-1.2417-22.35 0-29.1791.9312-4.9667 5.5875-10.8646 13.3479-12.4167 7.1396-1.2417 32.2833-1.5521 39.1125 0 9.002 2.1729 11.7958 10.2437 12.1062 13.0375.3104 3.1042.3104 5.277.3104 6.5187H48.1146c0-1.2416.3104-4.6562-2.7938-5.5875-1.8625-.6208-19.2458-.6208-23.5916-.3104-2.173.3104-3.4146 1.2417-3.725 3.4146-.9313 4.3458-.9313 14.9-.3105 18.9354z" fill="#003296"/></svg>