<svg xmlns="http://www.w3.org/2000/svg" height="800" width="1200" viewBox="-33.9015 -10.77625 293.813 64.6575"><path d="M40.309 20.97c.775 0 1.241.466 1.398 1.398 0 6.058-1.944 11.03-5.825 14.911-3.884 3.885-8.854 5.825-14.912 5.825-2.796 0-5.476-.582-8.039-1.747-2.563-1.165-4.816-2.716-6.757-4.66-1.944-1.94-3.458-4.23-4.543-6.873C.543 27.184 0 24.465 0 21.669c0-2.796.583-5.552 1.748-8.271 1.165-2.716 2.679-5.046 4.543-6.99 1.864-1.94 4.077-3.495 6.64-4.66C15.494.583 18.174.001 20.97.001c7.3 0 13.125 2.486 17.475 7.456.153.312.153.622 0 .932l-.932 1.165-.233.233c-.313 0-.546-.077-.699-.233v-.233c-3.885-4.503-9.087-6.757-15.611-6.757-3.262 0-6.291.896-9.087 2.68-2.796 1.788-5.009 4.157-6.641 7.106-1.631 2.953-2.446 6.059-2.446 9.32 0 5.126 1.784 9.517 5.359 13.164 3.572 3.651 7.842 5.476 12.815 5.476 4.97 0 9.124-1.551 12.466-4.66 3.338-3.105 5.162-7.066 5.475-11.883H27.727c-.313 0-.546-.076-.699-.232-.157-.153-.157-.387 0-.699l.932-1.165c.31-.466.852-.699 1.631-.699h10.718zm46.833 18.874c.466.156.735.35.815.582.076.233-.04.507-.35.816l-.932 1.164c-.156.157-.313.233-.466.233h-27.96c-1.089 0-1.944-.31-2.563-.932-.466-.775-.699-1.551-.699-2.33V1.398c.153-.31.386-.466.699-.466h1.398c.466.156.699.39.699.699v37.746c0 .156.037.272.117.35.077.08.27.116.583.116h28.659zM135.373.467c1.708.156 2.563 1.397 2.563 3.728v37.746c0 .313-.08.547-.233.699h-1.864c-.313 0-.546-.233-.699-.699V4.194l.233-.232c0-.31-.08-.466-.233-.466h-.233l-34.484 38.91c-.157.157-.313.233-.466.233h-2.563c-.157 0-.233-.076-.233-.233v-.466L132.81 1.864c.775-.932 1.631-1.397 2.563-1.397zm34.018 19.105c4.969.933 8.657 2.254 11.067 3.962 2.406 1.711 3.611 4.273 3.611 7.688 0 3.575-1.398 6.447-4.194 8.621-2.796 2.177-6.524 3.262-11.184 3.262-6.371 0-10.798-2.406-13.281-7.223-.156-.153-.156-.31 0-.466v-.233h.233l.932-.932c.153-.153.31-.233.466-.233.153 0 .31.156.466.466h.233c0 .157.077.313.233.467v.232c2.174 3.419 5.745 5.126 10.718 5.126 3.881 0 6.95-.815 9.204-2.446 2.25-1.631 3.378-3.845 3.378-6.641 0-2.482-.896-4.387-2.68-5.708-1.788-1.318-5.009-2.447-9.669-3.379-5.592-1.085-9.32-2.563-11.184-4.427-1.864-1.864-2.796-4.038-2.796-6.524 0-3.262 1.282-5.941 3.845-8.038C161.352 1.048 164.73 0 168.924 0c5.901 0 10.019 2.177 12.349 6.523.153.157.153.39 0 .699l-.932.932c-.313.157-.546.233-.699.233-.157 0-.233-.076-.233-.233l-.233-.232-.699-.932c-.157-.31-.39-.619-.699-.933l.233-.232-.233.232c-2.021-2.173-4.973-3.262-8.854-3.262-2.177 0-4.118.35-5.825 1.049-1.711.698-3.029 1.671-3.961 2.912-.932 1.245-1.398 2.72-1.398 4.427 0 2.178.892 3.885 2.68 5.126 1.784 1.246 4.776 2.331 8.971 3.263zm41.94 0c5.126.933 8.854 2.254 11.183 3.962 2.33 1.711 3.496 4.273 3.496 7.688 0 3.575-1.398 6.447-4.194 8.621-2.796 2.177-6.524 3.262-11.184 3.262-6.371 0-10.798-2.406-13.281-7.223-.157-.153-.157-.31 0-.466l.233-.233.932-.932c.153-.153.309-.233.466-.233.153 0 .386.156.699.466l.233.467.233.232c2.017 3.419 5.512 5.126 10.485 5.126 2.64 0 4.893-.386 6.757-1.165 1.864-.775 3.299-1.824 4.311-3.146 1.008-1.317 1.514-2.912 1.514-4.776 0-1.707-.389-3.105-1.164-4.194-.779-1.085-2.021-2.017-3.729-2.796-1.711-.775-4.194-1.475-7.456-2.097-5.592-1.085-9.32-2.563-11.184-4.427-1.864-1.864-2.796-4.038-2.796-6.524 0-3.262 1.282-5.941 3.845-8.038C203.293 1.048 206.671 0 210.865 0c5.901 0 10.019 2.177 12.349 6.523.153.157.153.39 0 .699l-.932.932c-.156.157-.312.233-.466.233h-.233c-.156 0-.232-.076-.232-.233l-.233-.232-.699-.932c-.157-.31-.39-.619-.699-.933l.233-.232-.233.232c-2.021-2.173-4.973-3.262-8.854-3.262-2.177 0-4.117.35-5.825 1.049-1.711.698-3.029 1.671-3.961 2.912-.932 1.245-1.398 2.72-1.398 4.427 0 2.178.892 3.885 2.68 5.126 1.782 1.246 4.774 2.331 8.969 3.263z"/></svg>